# xmcd
#
# Track frame offsets:
#  150
#  14701
#  27855
#  41438
#  59024
#  82134
#  95540
#  109401
#  122908
#  139220
#  153816
#  165263
#
# Disc length: 2335 seconds
#
# Revision: 0
# Processed by: cddbd v1.5.1PL0 Copyright (c) Steve Scherf et al.
# Submitted via: AltoMP3_Maker 3.0
#
DISCID=a0091d0c
DTITLE=Right Brothers - For My Country
DYEAR=1900
DGENRE=
TTITLE0=From Here On Out
TTITLE1=The Illegals
TTITLE2=What Happened To The Pot
TTITLE3=Lonely's Leaving Town
TTITLE4=For My Country
TTITLE5=The Waffle House
TTITLE6=I Want My Country Back
TTITLE7=Hey Hollywood
TTITLE8=Native Son
TTITLE9=Freedom Is Not Free
TTITLE10=The Waffle House (work-tape)
TTITLE11=For My Country (reprise)
EXTD=
EXTT0=
EXTT1=
EXTT2=
EXTT3=
EXTT4=
EXTT5=
EXTT6=
EXTT7=
EXTT8=
EXTT9=
EXTT10=
EXTT11=
PLAYORDER=
